<svg width="22" height="21" fill="#826550" xmlns="http://www.w3.org/2000/svg" viewBox="0 0 22.07 21.21">
  <path d="M21.81,0h-.1c-1,3.3-1.26,7.32-4,8.85-.51-1.44-1.77-2.1-3.19-2.73A9.62,9.62,0,0,0,11.68,5a1,1,0,0,0-.65.14A.92.92,0,0,0,10.39,5,9.62,9.62,0,0,0,7.56,6.12c-1.43.63-2.68,1.29-3.19,2.73C1.61,7.32,1.35,3.3.36,0H.26A6.2,6.2,0,0,0,0,1,110.34,110.34,0,0,0,.82,13.22c.53,2.7,2.61,4.64,4.63,5.92C6.86,20,9.1,21.21,11,21.21S15.2,20,16.62,19.14c2-1.28,4.09-3.22,4.63-5.92A110.34,110.34,0,0,0,22.07,1,6.2,6.2,0,0,0,21.81,0Zm-6,12a1.8,1.8,0,0,1-1.44,1.49c-1.28.07-1.93-1.89-3.37-1.88s-2.09,1.95-3.37,1.88A1.8,1.8,0,0,1,6.22,12a3.24,3.24,0,0,1,.72-2.42c.47-.46,1.21-.4,2-.51A3.68,3.68,0,0,0,11,8.26h0a3.71,3.71,0,0,0,2.08.84c.8.11,1.54.05,2,.51A3.24,3.24,0,0,1,15.84,12Z"/>
</svg>
