<svg xmlns="http://www.w3.org/2000/svg" viewBox="0 0 225.81 30.04">
  <title>logotype-mobile</title>
  <g>
    <rect x="1.02" y="10.7" width="4.94" height="4.94" transform="translate(-8.29 6.33) rotate(-45)" fill="#fff"/>
    <rect x="216.15" y="10.71" width="4.94" height="4.94" transform="translate(54.71 158.45) rotate(-45)" fill="#fff"/>
    <g>
      <polygon points="28.6 13.3 29.88 13.3 29.88 8.21 31.88 8.21 31.88 6.94 28.6 6.94 28.6 13.3" fill="#636466"/>
      <path d="M37.71,14.23V6.48A2.81,2.81,0,0,0,36.14,4a2.77,2.77,0,0,1,.29,1.21V13a2.69,2.69,0,0,1-1,2.14,3.17,3.17,0,0,1,1,2.26V26a2.83,2.83,0,0,1-2.78,2.79H25.36V30h9.56a2.84,2.84,0,0,0,2.79-2.79V18.64a3.2,3.2,0,0,0-1-2.26A2.74,2.74,0,0,0,37.71,14.23Z" transform="translate(0)" fill="#636466"/>
      <polygon points="28.6 24.21 29.88 24.21 29.88 19.09 31.88 19.09 31.88 17.81 28.6 17.81 28.6 24.21" fill="#636466"/>
    </g>
    <g>
      <polygon points="48.78 24.21 50.05 24.21 50.05 8.21 52.05 8.21 52.05 6.94 48.78 6.94 48.78 24.21" fill="#636466"/>
      <path d="M56.31,4a2.64,2.64,0,0,1,.3,1.21V26a2.83,2.83,0,0,1-2.79,2.79H47.05a2.78,2.78,0,0,1-1.22-.3A2.79,2.79,0,0,0,48.32,30h6.77a2.83,2.83,0,0,0,2.79-2.79V6.48A2.79,2.79,0,0,0,56.31,4Z" transform="translate(0)" fill="#636466"/>
    </g>
    <g>
      <polygon points="68.95 13.3 70.23 13.3 70.23 8.21 72.23 8.21 72.23 6.94 68.95 6.94 68.95 13.3" fill="#636466"/>
      <path d="M76.44,18.82A2.72,2.72,0,0,0,78,16.34V6.48A2.8,2.8,0,0,0,76.45,4a2.87,2.87,0,0,1,.3,1.24v9.86a2.73,2.73,0,0,1-1.59,2.48l1.89,11.22H73.59L73.8,30h4.52Z" transform="translate(0)" fill="#636466"/>
      <polygon points="70.69 17.81 68.95 17.81 68.95 28.77 65.71 28.77 65.71 30.04 70.23 30.04 70.23 19.09 70.9 19.09 70.69 17.81" fill="#636466"/>
    </g>
    <g>
      <polygon points="88.53 24.21 89.8 24.21 89.8 8.21 91.8 8.21 91.8 6.94 88.53 6.94 88.53 24.21" fill="#636466"/>
      <path d="M96.06,4a2.64,2.64,0,0,1,.3,1.21V26a2.83,2.83,0,0,1-2.79,2.79H86.79a2.77,2.77,0,0,1-1.21-.3A2.79,2.79,0,0,0,88.07,30h6.77a2.83,2.83,0,0,0,2.79-2.79V6.48A2.79,2.79,0,0,0,96.06,4Z" transform="translate(0)" fill="#636466"/>
    </g>
    <g>
      <polygon points="108.7 24.21 109.98 24.21 109.98 8.21 111.98 8.21 111.98 6.94 108.7 6.94 108.7 24.21" fill="#636466"/>
      <path d="M116.24,4a2.77,2.77,0,0,1,.29,1.21V26a2.83,2.83,0,0,1-2.78,2.79h-8.29V30H115a2.83,2.83,0,0,0,2.78-2.79V6.48A2.8,2.8,0,0,0,116.24,4Z" transform="translate(0)" fill="#636466"/>
    </g>
    <polygon points="129.1 3.69 129.1 28.77 125.86 28.77 125.86 30.04 130.38 30.04 130.38 3.69 129.1 3.69" fill="#636466"/>
    <g>
      <polygon points="149.21 3.69 149.21 28.77 145.6 28.77 145.96 30.04 150.48 30.04 150.48 3.69 149.21 3.69" fill="#636466"/>
      <polygon points="141.38 17.25 141.38 28.77 138.13 28.77 138.13 30.04 142.65 30.04 142.65 21.68 141.38 17.25" fill="#636466"/>
    </g>
    <g>
      <path d="M161.09,19.09h3.74V17.81h-5a2.64,2.64,0,0,1-1.22-.29A2.76,2.76,0,0,0,161.09,19.09Z" transform="translate(0)" fill="#636466"/>
      <polygon points="162.82 20.78 161.55 21.08 161.55 24.21 162.82 24.21 162.82 20.78" fill="#636466"/>
      <path d="M169.09,4a2.77,2.77,0,0,1,.29,1.21v5.35l-3.28.76v1.57l4.55-1.06V6.48A2.8,2.8,0,0,0,169.09,4Z" transform="translate(0)" fill="#636466"/>
      <path d="M169.09,14.87a2.77,2.77,0,0,1,.29,1.21V26a2.83,2.83,0,0,1-2.79,2.79h-6.77a2.71,2.71,0,0,1-1.21-.3A2.77,2.77,0,0,0,161.09,30h6.78a2.83,2.83,0,0,0,2.78-2.79v-9.9A2.78,2.78,0,0,0,169.09,14.87Z" transform="translate(0)" fill="#636466"/>
      <polygon points="161.55 6.94 161.55 13.3 162.82 13.3 162.82 8.21 164.83 8.21 164.83 6.94 161.55 6.94" fill="#636466"/>
    </g>
    <g>
      <polygon points="182.14 17.81 181.73 17.81 181.73 28.77 178.48 28.77 178.48 30.04 183 30.04 183 20.55 182.14 17.81" fill="#636466"/>
      <polygon points="191.39 3.69 189.71 3.69 185.91 15.55 190.12 28.77 186.45 28.77 186.8 29.89 186.84 30.04 191.39 30.04 187.18 16.83 191.39 3.69" fill="#636466"/>
    </g>
    <polygon points="202.02 3.69 202.02 28.77 198.77 28.77 198.77 30.04 203.29 30.04 203.29 3.69 202.02 3.69" fill="#636466"/>
    <rect x="220.96" y="17.08" width="4.94" height="1.8" transform="translate(52.75 163.28) rotate(-45.01)" fill="#636466"/>
    <rect x="5.83" y="17.08" width="4.94" height="1.8" transform="translate(-10.28 11.13) rotate(-45)" fill="#636466"/>
    <g>
      <path d="M34,10.54a2.75,2.75,0,0,1-1,2.15,3.16,3.16,0,0,1,1,2.25v8.62a2.83,2.83,0,0,1-2.78,2.79H21.67V0h9.56A2.8,2.8,0,0,1,34,2.79Zm-4.55-6H26.18v6.36h3.28Zm0,10.88H26.18v6.39h3.28Z" transform="translate(0)" fill="#fff"/>
      <path d="M51.4,0a2.8,2.8,0,0,1,2.79,2.79V23.56a2.83,2.83,0,0,1-2.79,2.79H44.63a2.8,2.8,0,0,1-2.79-2.79V2.79A2.78,2.78,0,0,1,44.63,0ZM49.63,4.52H46.36V21.79h3.27Z" transform="translate(0)" fill="#fff"/>
      <path d="M70.11,26.35l-1.85-11H66.53v11H62V0h9.56a2.78,2.78,0,0,1,2.75,2.79v9.86a2.74,2.74,0,0,1-1.58,2.48l1.88,11.22Zm-.3-21.83H66.53v6.36h3.28Z" transform="translate(0)" fill="#fff"/>
      <path d="M91.15,0a2.8,2.8,0,0,1,2.79,2.79V23.56a2.83,2.83,0,0,1-2.79,2.79H84.38a2.8,2.8,0,0,1-2.79-2.79V2.79A2.78,2.78,0,0,1,84.38,0ZM89.38,4.52H86.11V21.79h3.27Z" transform="translate(0)" fill="#fff"/>
      <path d="M111.33,0a2.8,2.8,0,0,1,2.78,2.79V23.56a2.83,2.83,0,0,1-2.78,2.79h-9.56V0Zm-1.77,4.52h-3.28V21.79h3.28Z" transform="translate(0)" fill="#fff"/>
      <path d="M122.17,0h4.52V26.35h-4.52Z" transform="translate(0)" fill="#fff"/>
      <path d="M146.78,0V26.35h-4.51L139,14.83V26.35h-4.52V0h4.48l3.31,10.8V0Z" transform="translate(0)" fill="#fff"/>
      <path d="M164.18,10.88A2.8,2.8,0,0,1,167,13.66v9.9a2.83,2.83,0,0,1-2.78,2.79H157.4a2.8,2.8,0,0,1-2.78-2.79V18.14l4.51-1.05v4.7h3.28v-6.4h-5a2.77,2.77,0,0,1-2.78-2.78V2.79A2.78,2.78,0,0,1,157.4,0h6.77A2.8,2.8,0,0,1,167,2.79V8.13l-4.56,1V4.52h-3.27v6.36Z" transform="translate(0)" fill="#fff"/>
      <path d="M183.48,13.14l4.22,13.21h-4.55l0-.15-3.39-10.81h-.41v11h-4.52V0h4.52V10.88h.34L183.11,0h4.59Z" transform="translate(0)" fill="#fff"/>
      <path d="M195.08,0h4.52V26.35h-4.52Z" transform="translate(0)" fill="#fff"/>
    </g>
  </g>
</svg>
